#!OML:ASF H:\Terrain\Patient Classification 1\Walking\steve\steve.ASF
:FULLY-SPECIFIED
:DEGREES
156
root 8.91431 16.3563 -1.18142 5.96128 0.284801 -3.76992
lowerback 1.54433 2.7295 4.4166
upperback -2.00452 3.8295 2.15963
thorax -2.79026 1.84104 -0.391958
lowerneck -8.32863 -2.0905 -2.69684
upperneck 13.2255 -2.83188 2.67502
head 5.43041 -1.32836 1.07617
rclavicle 4.32357e-015 -2.38542e-014
rhumerus -30.35 -10.2207 -84.7017
rradius 29.6274
rwrist -9.01036
rhand -29.693 -36.9327
rfingers 7.12502
rthumb -3.02102 -66.8911
lclavicle 4.32357e-015 -2.38542e-014
lhumerus -36.8901 5.22668 87.5422
lradius 20.7861
lwrist 5.88964
lhand -20.2766 -12.2004
lfingers 7.12502
lthumb 6.07275 17.6926
rfemur -19.0032 2.37118 29.3366
rtibia 34.138
rfoot -17.1507 11.522
rtoes 9.42103
lfemur -31.3536 5.9968 -17.8412
ltibia 67.2031
lfoot -8.69076 2.84598
ltoes -21.8353
157
root 8.92889 16.3504 -0.930411 6.1045 0.23639 -4.19571
lowerback 1.40444 2.77839 4.91751
upperback -2.0536 3.90111 2.14997
thorax -2.72751 1.86656 -0.674275
lowerneck -8.63419 -2.09035 -2.57115
upperneck 13.5894 -2.84068 2.60965
head 5.59358 -1.32716 1.03092
rclavicle 2.44754e-014 -1.27222e-014
rhumerus -29.1154 -8.68193 -85.3165
rradius 31.5747
rwrist -9.61428
rhand -27.9497 -37.9882
rfingers 7.12502
rthumb -1.33731 -67.9637
lclavicle 2.44754e-014 -1.27222e-014
lhumerus -37.9258 7.62323 85.6503
lradius 18.6064
lwrist 2.8206
lhand -19.8972 -12.056
lfingers 7.12502
lthumb 6.43907 17.8261
rfemur -17.8607 1.68947 29.8165
rtibia 33.7026
rfoot -17.7626 12.2767
rtoes 9.00989
lfemur -32.9034 5.89252 -17.4817
ltibia 65.474
lfoot -10.228 3.29731
ltoes -24.2315
158
root 8.9489 16.3482 -0.666195 6.26695 0.0990554 -4.34983
lowerback 1.09277 2.92331 5.27863
upperback -2.07489 4.07777 1.99145
thorax -2.53069 1.94961 -1.02331
lowerneck -8.70149 -2.10418 -2.5455
upperneck 13.6841 -2.90321 2.87798
head 5.63981 -1.33611 1.1054
rclavicle 1.7667e-014 7.95139e-015
rhumerus -27.9228 -8.19487 -85.4004
rradius 33.5818
rwrist -8.14174
rhand -24.0827 -40.4607
rfingers 7.12502
rthumb 2.39745 -70.427
lclavicle 1.7667e-014 7.95139e-015
lhumerus -39.0229 10.2459 83.2313
lradius 16.4867
lwrist -1.02487
lhand -19.1278 -11.6118
lfingers 7.12502
lthumb 7.18177 18.2463
rfemur -16.7937 0.431753 29.9679
rtibia 33.271
rfoot -18.1488 13.1037
rtoes 8.11776
lfemur -34.0975 5.78098 -17.4737
ltibia 63.3543
lfoot -9.74825 3.75754
ltoes -17.4187
159
root 8.96413 16.344 -0.399909 6.38939 -0.189183 -4.41048
lowerback 0.868632 3.11079 5.40867
upperback -2.11601 4.31228 1.83936
thorax -2.41358 2.06469 -1.24331
lowerneck -8.53345 -2.06565 -2.47922
upperneck 13.5904 -2.90625 3.18382
head 5.58527 -1.31437 1.19197
rclavicle -5.77718e-015 3.02153e-014
rhumerus -26.8827 -7.49381 -85.6101
rradius 35.6259
rwrist -7.74885
rhand -21.8225 -41.1995
rfingers 7.12502
rthumb 4.5802 -71.1299
lclavicle -5.77718e-015 3.02153e-014
lhumerus -40.358 13.3521 80.1318
lradius 14.4656
lwrist -5.98626
lhand -18.7701 -11.3488
lfingers 7.12502
lthumb 7.52708 18.4973
rfemur -15.7735 -0.669502 30.0078
rtibia 32.834
rfoot -18.2916 14.0992
rtoes 8.57861
lfemur -35.0795 5.71457 -17.5279
ltibia 60.8936
lfoot -10.2668 4.09467
ltoes -15.3515
160
root 8.9766 16.3431 -0.134014 6.51913 -0.458506 -4.52455
lowerback 0.643887 3.26906 5.53668
upperback -2.12914 4.50634 1.70043
thorax -2.2688 2.16113 -1.44513
lowerneck -8.68508 -2.12594 -2.19898
upperneck 13.7393 -3.01746 3.10012
head 5.65563 -1.3577 1.10974
rclavicle 3.12465e-014 -3.57812e-015
rhumerus -25.7573 -6.33676 -86.0726
rradius 37.5524
rwrist -8.87298
rhand -21.9129 -39.737
rfingers 7.12502
rthumb 4.49289 -69.6693
lclavicle 3.12465e-014 -3.57812e-015
lhumerus -42.1255 16.6919 76.409
lradius 12.9371
lwrist -11.4998
lhand -18.3388 -10.959
lfingers 7.12502
lthumb 7.94334 18.8718
rfemur -14.6876 -1.60635 30.0745
rtibia 32.3289
rfoot -18.2912 15.28
rtoes 8.85299
lfemur -35.9504 5.53215 -17.4767
ltibia 58.132
lfoot -11.0236 4.44017
ltoes -14.2284
161
root 8.98837 16.3408 0.125855 6.67741 -0.684857 -4.59759
lowerback 0.485529 3.38665 5.5986
upperback -2.14886 4.65043 1.57259
thorax -2.17574 2.23279 -1.60189
lowerneck -8.87625 -2.2093 -2.08552
upperneck 13.8068 -3.1451 3.09112
head 5.71123 -1.41232 1.07653
rclavicle -3.89494e-014 -6.75868e-015
rhumerus -24.6432 -4.9435 -86.4133
rradius 39.5606
rwrist -10.3112
rhand -22.8409 -37.2205
rfingers 7.12502
rthumb 3.59672 -67.1699
lclavicle -3.89494e-014 -6.75868e-015
lhumerus -44.3402 19.7806 72.3786
lradius 11.9822
lwrist -16.913
lhand -16.8495 -10.2285
lfingers 7.12502
lthumb 9.38059 19.5428
rfemur -13.5542 -2.34957 30.0622
rtibia 31.7056
rfoot -18.2079 16.0652
rtoes 8.50929
lfemur -36.694 5.37977 -17.4871
ltibia 55.1375
lfoot -11.9632 4.86601
ltoes -15.5552
162
root 8.99746 16.3355 0.379305 6.80245 -1.00622 -4.7823
lowerback 0.584928 3.47607 5.66832
upperback -2.28377 4.78392 1.51821
thorax -2.35246 2.29055 -1.70927
lowerneck -8.63908 -2.16194 -2.0279
upperneck 13.5908 -3.1026 3.19913
head 5.60271 -1.38496 1.10698
rclavicle 1.73812e-014 -3.97569e-016
rhumerus -23.8192 -3.27474 -86.6245
rradius 41.6938
rwrist -11.9287
rhand -21.0015 -41.2486
rfingers 7.12502
rthumb 5.37291 -71.1604
lclavicle 1.73812e-014 -3.97569e-016
lhumerus -47.2066 23.4648 67.122
lradius 10.9475
lwrist -23.4493
lhand -19.0565 -13.4698
lfingers 7.12502
lthumb 7.25061 16.386
rfemur -12.336 -2.85589 30.1218
rtibia 30.9674
rfoot -17.9446 16.7159
rtoes 9.45832
lfemur -37.4192 5.43566 -17.3082
ltibia 51.9795
lfoot -13.2345 5.17189
ltoes -18.5544
163
root 9.01037 16.3275 0.643191 6.84598 -1.46619 -4.93612
lowerback 0.658598 3.62017 5.73895
upperback -2.35954 4.98533 1.45951
thorax -2.44772 2.38501 -1.81872
lowerneck -8.54508 -2.16652 -1.86168
upperneck 13.5127 -3.11618 3.09281
head 5.5584 -1.39228 1.04648
rclavicle -5.479e-015 -1.96797e-014
rhumerus -22.9128 -1.94515 -86.7095
rradius 43.7238
rwrist -13.1093
rhand -21.6902 -34.7251
rfingers 7.12502
rthumb 4.70791 -64.6528
lclavicle -5.479e-015 -1.96797e-014
lhumerus -48.4421 23.2153 66.1858
lradius 9.87214
lwrist -24.2514
lhand -18.2588 -11.7631
lfingers 7.12502
lthumb 8.02054 18.0647
rfemur -10.9009 -3.54938 30.0318
rtibia 30.1407
rfoot -17.3254 17.9352
rtoes 11.4681
lfemur -37.9421 5.62374 -17.1138
ltibia 48.5875
lfoot -14.2284 5.16241
ltoes -19.5464
164
root 9.02804 16.3205 0.920158 6.92429 -1.90943 -4.98372
lowerback 0.463364 3.79442 5.83171
upperback -2.43461 5.20565 1.36237
thorax -2.38339 2.49259 -1.95996
lowerneck -8.2665 -2.22873 -1.9725
upperneck 13.4905 -3.20527 3.2144
head 5.50987 -1.43564 1.09901
rclavicle 8.83349e-015 2.0276e-014
rhumerus -21.939 -0.794188 -86.6409
rradius 45.3663
rwrist -14.1921
rhand -23.1226 -41.3934
rfingers 7.12502
rthumb 3.32474 -71.3472
lclavicle 8.83349e-015 2.0276e-014
lhumerus -49.9549 22.7684 65.2264
lradius 9.00515
lwrist -24.4494
lhand -17.556 -10.4593
lfingers 7.12502
lthumb 8.69879 19.3415
rfemur -9.40361 -4.42713 29.7152
rtibia 29.2481
rfoot -16.61 19.526
rtoes 12.9015
lfemur -38.1775 5.79095 -17.0865
ltibia 44.9385
lfoot -14.6362 5.09739
ltoes -20.0129
165
root 9.04943 16.3241 1.19445 7.04438 -2.26561 -5.00377
lowerback 0.253487 3.9207 5.96207
upperback -2.50825 5.36141 1.27845
thorax -2.31109 2.56759 -2.10529
lowerneck -7.93485 -2.22115 -2.18902
upperneck 13.3688 -3.18723 3.36134
head 5.42051 -1.43188 1.18542
rclavicle -2.99171e-014 -2.28602e-014
rhumerus -20.8032 0.457251 -86.4555
rradius 46.6875
rwrist -15.2828
rhand -23.7905 -42.2422
rfingers 7.12502
rthumb 2.67971 -72.2052
lclavicle -2.99171e-014 -2.28602e-014
lhumerus -51.5793 22.339 64.243
lradius 8.32334
lwrist -24.3795
lhand -18.6925 -10.3623
lfingers 7.12502
lthumb 7.60195 19.4811
rfemur -7.9392 -5.32959 29.3139
rtibia 28.2312
rfoot -16.2116 20.8716
rtoes 12.1323
lfemur -38.2699 5.65409 -16.9905
ltibia 41.0975
lfoot -14.9462 5.16727
ltoes -19.1543
166
root 9.06926 16.3222 1.45487 7.26196 -2.64092 -5.19303
lowerback 0.15663 4.03649 6.12941
upperback -2.48666 5.50964 1.29295
thorax -2.20954 2.6416 -2.17375
lowerneck -8.38063 -2.22203 -2.25127
upperneck 13.4163 -3.15776 3.24275
head 5.50971 -1.4241 1.15601
rclavicle 2.78112e-014 7.55382e-015
rhumerus -19.3213 1.65441 -86.1616
rradius 48.049
rwrist -15.921
rhand -23.4732 -42.1201
rfingers 7.12502
rthumb 2.98608 -72.0789
lclavicle 2.78112e-014 7.55382e-015
lhumerus -52.9808 22.0494 63.3515
lradius 8.00529
lwrist -24.0538
lhand -20.121 -10.3875
lfingers 7.12502
lthumb 6.22301 19.5011
rfemur -6.58767 -5.77234 29.1623
rtibia 27.0441
rfoot -16.0364 21.4772
rtoes 10.0586
lfemur -38.4941 5.38636 -16.563
ltibia 37.1746
lfoot -15.2333 5.3039
ltoes -17.2997
